# Blender 3.3.1
# www.blender.org
mtllib ground.mtl
g Cube_Mesh
v 103.601761 0.458392 -103.601761
v 103.601761 -0.458392 -103.601761
v 103.601761 0.458392 103.601761
v 103.601761 -0.458392 103.601761
v -103.601761 0.458392 -103.601761
v -103.601761 -0.458392 -103.601761
v -103.601761 0.458392 103.601761
v -103.601761 -0.458392 103.601761
vn -0.0000 1.0000 -0.0000
vn -0.0000 -0.0000 1.0000
vn -1.0000 -0.0000 -0.0000
vn -0.0000 -1.0000 -0.0000
vn 1.0000 -0.0000 -0.0000
vn -0.0000 -0.0000 -1.0000
vt 871.164856 871.164978
vt 0.625000 0.500000
vt 0.375000 0.500000
vt 871.164978 -870.164856
vt 0.625000 0.750000
vt 0.375000 0.750000
vt -870.164978 871.164856
vt 0.625000 0.250000
vt 0.125000 0.500000
vt 0.375000 0.250000
vt -870.164856 -870.164978
vt 0.625000 1.000000
vt 0.625000 0.000000
vt 0.375000 0.000000
vt 0.375000 1.000000
vt 0.125000 0.750000
s 0
g Cube_mat
usemtl mat
f 5/7/1 3/4/1 1/1/1
f 3/5/2 8/15/2 4/6/2
f 7/13/3 6/10/3 8/14/3
f 2/3/4 8/16/4 6/9/4
f 1/2/5 4/6/5 2/3/5
f 5/8/6 2/3/6 6/10/6
f 5/7/1 7/11/1 3/4/1
f 3/5/2 7/12/2 8/15/2
f 7/13/3 5/8/3 6/10/3
f 2/3/4 4/6/4 8/16/4
f 1/2/5 3/5/5 4/6/5
f 5/8/6 1/2/6 2/3/6
